<svg width="82" height="65" viewBox="0 0 82 65" fill="none" xmlns="http://www.w3.org/2000/svg">
<path d="M43.9214 59.5457V16.2297" stroke="black" stroke-width="1.955" stroke-linejoin="bevel"/>
<path d="M26.6682 59.5457V16.2297" stroke="#FFB18F" stroke-width="2.04" stroke-linejoin="bevel"/>
<path d="M8.76721 59.5457V16.2297" stroke="black" stroke-width="2.04" stroke-linejoin="bevel"/>
<path d="M8.81889 59.7391C6.15715 59.7391 3.99939 57.5746 3.99939 54.9047C3.99939 52.2347 6.15715 50.0703 8.81889 50.0703C11.4806 50.0703 13.6384 52.2347 13.6384 54.9047C13.6384 57.5746 11.4806 59.7391 8.81889 59.7391Z" fill="white"/>
<path d="M8.81889 59.7391C6.15715 59.7391 3.99939 57.5746 3.99939 54.9047C3.99939 52.2347 6.15715 50.0703 8.81889 50.0703C11.4806 50.0703 13.6384 52.2347 13.6384 54.9047C13.6384 57.5746 11.4806 59.7391 8.81889 59.7391Z" stroke="#1D1D1B" stroke-width="2.55"/>
<path d="M26.7199 26.6614C24.0581 26.6614 21.9004 24.497 21.9004 21.827C21.9004 19.1571 24.0581 16.9927 26.7199 16.9927C29.3816 16.9927 31.5394 19.1571 31.5394 21.827C31.5394 24.497 29.3816 26.6614 26.7199 26.6614Z" fill="#FFB18F"/>
<path d="M2.07227 37.3079L8.8891 44.1458L15.7046 37.3079L8.8891 30.4714L2.07227 37.3079Z" fill="black"/>
<path d="M20.8777 39.6932L26.7198 45.5533L32.562 39.6932L26.7198 33.833L20.8777 39.6932Z" fill="white"/>
<path d="M20.8777 39.6932L26.7198 45.5533L32.562 39.6932L26.7198 33.833L20.8777 39.6932Z" stroke="#FFB18F" stroke-width="2.55"/>
<path d="M39.1129 28.661C39.1129 25.9952 41.2748 23.8267 43.9324 23.8267C46.59 23.8267 48.7519 25.9952 48.7519 28.661C48.7519 31.3268 46.59 33.4954 43.9324 33.4954C41.2748 33.4954 39.1129 31.3268 39.1129 28.661Z" fill="white"/>
<path d="M39.1129 28.661C39.1129 25.9952 41.2748 23.8267 43.9324 23.8267C46.59 23.8267 48.7519 25.9952 48.7519 28.661C48.7519 31.3268 46.59 33.4954 43.9324 33.4954C41.2748 33.4954 39.1129 31.3268 39.1129 28.661Z" stroke="#1D1D1B" stroke-width="2.55"/>
<path d="M39.1129 50.0705C39.1129 47.4046 41.2748 45.2361 43.9324 45.2361C46.59 45.2361 48.7519 47.4046 48.7519 50.0705C48.7519 52.7363 46.59 54.9048 43.9324 54.9048C41.2748 54.9048 39.1129 52.7363 39.1129 50.0705Z" fill="black"/>
</svg>
