<svg width="452" height="421" viewBox="0 0 452 421" fill="none" xmlns="http://www.w3.org/2000/svg">
<path d="M10.9083 25H21.8167V36H10.9083V25Z" fill="#1A1A1A"/>
<path d="M44.625 26H52.5583V34H44.625V26Z" fill="black"/>
<rect x="14.875" y="29" width="2.975" height="3" fill="#1A1A1A"/>
<rect x="79.3333" y="29" width="1.98333" height="2" fill="#1A1A1A"/>
<path d="M75.3666 25H85.2833V35H75.3666V25Z" fill="#1A1A1A"/>
<path d="M109.083 26H117.017V34H109.083V26Z" fill="black"/>
<path d="M139.825 25H149.742V35H139.825V25Z" fill="#1A1A1A"/>
<path d="M173.542 26H181.475V34H173.542V26Z" fill="black"/>
<rect x="143.792" y="29" width="1.98333" height="2" fill="#1A1A1A"/>
<rect x="208.25" y="30" width="1.98333" height="2" fill="#1A1A1A"/>
<path d="M238 26H245.933V34H238V26Z" fill="black"/>
<path d="M204.283 25H214.2V35H204.283V25Z" fill="#1A1A1A"/>
<path d="M268.742 26H278.658V36H268.742V26Z" fill="#1A1A1A"/>
<path d="M302.458 26H310.392V34H302.458V26Z" fill="black"/>
<rect x="272.708" y="30" width="1.98333" height="2" fill="#1A1A1A"/>
<rect x="338.158" y="30" width="0.991667" height="1" fill="#1A1A1A"/>
<path d="M333.2 26H343.117V36H333.2V26Z" fill="#1A1A1A"/>
<path d="M366.917 26H374.85V34H366.917V26Z" fill="black"/>
<path d="M398.65 26H407.575V35H398.65V26Z" fill="#1A1A1A"/>
<path d="M431.375 26H439.308V34H431.375V26Z" fill="black"/>
<rect x="402.617" y="30" width="0.991667" height="1" fill="#1A1A1A"/>
<rect x="15.8666" y="90" width="0.991667" height="1" fill="#1A1A1A"/>
<path d="M44.625 86H52.5583V94H44.625V86Z" fill="black"/>
<path d="M11.9 86H20.825V95H11.9V86Z" fill="#1A1A1A"/>
<path d="M76.3583 86H85.2833V95H76.3583V86Z" fill="#1A1A1A"/>
<path d="M109.083 86H117.017V94H109.083V86Z" fill="black"/>
<path d="M140.817 86H149.742V95H140.817V86Z" fill="#1A1A1A"/>
<path d="M173.542 86H181.475V94H173.542V86Z" fill="black"/>
<path d="M205.275 86H214.2V95H205.275V86Z" fill="#1A1A1A"/>
<path d="M238 86H245.933V94H238V86Z" fill="black"/>
<path d="M269.733 86H278.658V95H269.733V86Z" fill="#1A1A1A"/>
<path d="M302.458 86H310.392V94H302.458V86Z" fill="black"/>
<path d="M334.192 86H343.117V95H334.192V86Z" fill="#1A1A1A"/>
<path d="M366.917 86H374.85V94H366.917V86Z" fill="black"/>
<path d="M398.65 86H407.575V95H398.65V86Z" fill="#1A1A1A"/>
<path d="M431.375 86H439.308V94H431.375V86Z" fill="black"/>
<path d="M11.9 146H19.8334V154H11.9V146Z" fill="#1A1A1A"/>
<path d="M44.625 146H52.5583V154H44.625V146Z" fill="black"/>
<path d="M76.3583 146H84.2917V154H76.3583V146Z" fill="#1A1A1A"/>
<path d="M109.083 146H117.017V154H109.083V146Z" fill="black"/>
<path d="M140.817 146H148.75V154H140.817V146Z" fill="#1A1A1A"/>
<path d="M173.542 146H181.475V154H173.542V146Z" fill="black"/>
<path d="M205.275 146H213.208V154H205.275V146Z" fill="#1A1A1A"/>
<path d="M238 146H245.933V154H238V146Z" fill="black"/>
<path d="M269.733 146H277.667V154H269.733V146Z" fill="#1A1A1A"/>
<path d="M302.458 146H310.392V154H302.458V146Z" fill="black"/>
<path d="M334.192 146H342.125V154H334.192V146Z" fill="#1A1A1A"/>
<path d="M366.917 146H374.85V154H366.917V146Z" fill="black"/>
<path d="M398.65 146H406.583V154H398.65V146Z" fill="#1A1A1A"/>
<path d="M431.375 146H439.308V154H431.375V146Z" fill="black"/>
<path d="M11.9 206H19.8334V214H11.9V206Z" fill="#1A1A1A"/>
<path d="M44.625 206H52.5583V214H44.625V206Z" fill="black"/>
<path d="M76.3583 206H84.2917V214H76.3583V206Z" fill="#1A1A1A"/>
<path d="M109.083 206H117.017V214H109.083V206Z" fill="black"/>
<path d="M140.817 206H148.75V214H140.817V206Z" fill="#1A1A1A"/>
<path d="M173.542 206H181.475V214H173.542V206Z" fill="black"/>
<path d="M205.275 206H213.208V214H205.275V206Z" fill="#1A1A1A"/>
<path d="M238 206H245.933V214H238V206Z" fill="black"/>
<path d="M269.733 206H277.667V214H269.733V206Z" fill="#1A1A1A"/>
<path d="M302.458 206H310.392V214H302.458V206Z" fill="black"/>
<path d="M334.192 206H342.125V214H334.192V206Z" fill="#1A1A1A"/>
<path d="M366.917 206H374.85V214H366.917V206Z" fill="black"/>
<path d="M398.65 206H406.583V214H398.65V206Z" fill="#1A1A1A"/>
<path d="M431.375 206H439.308V214H431.375V206Z" fill="black"/>
<path d="M11.9 266H19.8334V274H11.9V266Z" fill="#1A1A1A"/>
<path d="M44.625 266H52.5583V274H44.625V266Z" fill="black"/>
<path d="M76.3583 266H84.2917V274H76.3583V266Z" fill="#1A1A1A"/>
<path d="M109.083 266H117.017V274H109.083V266Z" fill="black"/>
<path d="M140.817 266H148.75V274H140.817V266Z" fill="#1A1A1A"/>
<path d="M173.542 266H181.475V274H173.542V266Z" fill="black"/>
<path d="M205.275 266H213.208V274H205.275V266Z" fill="#1A1A1A"/>
<path d="M238 266H245.933V274H238V266Z" fill="black"/>
<path d="M269.733 266H277.667V274H269.733V266Z" fill="#1A1A1A"/>
<path d="M302.458 266H310.392V274H302.458V266Z" fill="black"/>
<path d="M334.192 266H342.125V274H334.192V266Z" fill="#1A1A1A"/>
<path d="M366.917 266H374.85V274H366.917V266Z" fill="black"/>
<path d="M398.65 266H406.583V274H398.65V266Z" fill="#1A1A1A"/>
<path d="M431.375 266H439.308V274H431.375V266Z" fill="black"/>
<path d="M11.9 326H19.8334V334H11.9V326Z" fill="#1A1A1A"/>
<path d="M44.625 326H52.5583V334H44.625V326Z" fill="black"/>
<path d="M76.3583 326H84.2917V334H76.3583V326Z" fill="#1A1A1A"/>
<path d="M109.083 326H117.017V334H109.083V326Z" fill="black"/>
<path d="M140.817 326H148.75V334H140.817V326Z" fill="#1A1A1A"/>
<path d="M173.542 326H181.475V334H173.542V326Z" fill="black"/>
<path d="M205.275 326H213.208V334H205.275V326Z" fill="#1A1A1A"/>
<path d="M238 326H245.933V334H238V326Z" fill="black"/>
<path d="M269.733 326H277.667V334H269.733V326Z" fill="#1A1A1A"/>
<path d="M302.458 326H310.392V334H302.458V326Z" fill="black"/>
<path d="M334.192 326H342.125V334H334.192V326Z" fill="#1A1A1A"/>
<path d="M366.917 326H374.85V334H366.917V326Z" fill="black"/>
<path d="M398.65 326H406.583V334H398.65V326Z" fill="#1A1A1A"/>
<path d="M431.375 326H439.308V334H431.375V326Z" fill="black"/>
<path d="M11.9 386H19.8334V394H11.9V386Z" fill="#1A1A1A"/>
<path d="M44.625 386H52.5583V394H44.625V386Z" fill="black"/>
<path d="M76.3583 386H84.2917V394H76.3583V386Z" fill="#1A1A1A"/>
<path d="M109.083 386H117.017V394H109.083V386Z" fill="black"/>
<path d="M140.817 386H148.75V394H140.817V386Z" fill="#1A1A1A"/>
<path d="M173.542 386H181.475V394H173.542V386Z" fill="black"/>
<path d="M205.275 386H213.208V394H205.275V386Z" fill="#1A1A1A"/>
<path d="M238 386H245.933V394H238V386Z" fill="black"/>
<path d="M269.733 386H277.667V394H269.733V386Z" fill="#1A1A1A"/>
<path d="M302.458 386H310.392V394H302.458V386Z" fill="black"/>
<path d="M334.192 386H342.125V394H334.192V386Z" fill="#1A1A1A"/>
<path d="M366.917 386H374.85V394H366.917V386Z" fill="black"/>
<path d="M398.65 386H406.583V394H398.65V386Z" fill="#1A1A1A"/>
<path d="M431.375 386H439.308V394H431.375V386Z" fill="black"/>
</svg>
