<svg width="81" height="25" viewBox="0 0 81 25" fill="none" xmlns="http://www.w3.org/2000/svg">
<path fill-rule="evenodd" clip-rule="evenodd" d="M20.7337 24.708H25.1406V0H20.7337V24.708ZM48.5536 4.448H52.9317V0.075H48.5536V4.45V4.448ZM71.8837 24.678V12.661C71.8837 8.258 69.8167 5.931 65.9087 5.931C63.4607 5.931 61.6927 6.936 60.5037 9.006L60.3627 9.251V6.365H55.9846V24.678H60.3627V14.073C60.3627 11.278 61.9556 9.473 64.4226 9.473C66.4976 9.473 67.5057 10.622 67.5057 12.987V24.678H71.8827H71.8837ZM74.8657 24.678H80.5406V19.008H74.8657V24.678ZM52.9207 24.708H48.5126V6.41H52.9207V24.707V24.708ZM38.9366 17.477V16.67L38.8546 16.677L34.7867 17.03C34.6917 17.04 32.4527 17.301 31.9267 18.282C31.6917 18.722 31.6486 19.278 31.8106 19.808C31.9436 20.244 32.2747 20.856 33.0927 21.288C33.4827 21.528 33.9956 21.677 34.6176 21.729L34.6847 21.739C34.7187 21.744 34.7517 21.749 34.7877 21.751L34.8357 21.745C34.9317 21.749 35.0297 21.752 35.1297 21.752C37.3707 21.752 38.9366 19.994 38.9366 17.477V17.477ZM39.1147 21.818H39.0686L39.0486 21.858C37.9126 24.048 36.1097 25.113 33.5357 25.113C30.1997 25.113 27.7787 22.753 27.7787 19.504C27.7787 16.358 30.1257 14.128 33.7587 13.823L38.8676 13.388L38.9366 13.382V12.118C38.9366 10.268 37.9077 9.291 35.9627 9.291C34.0247 9.291 32.8087 10.288 32.7727 11.898H28.3967C28.5687 8.215 31.5297 5.931 36.1427 5.931C40.6537 5.931 43.2407 8.212 43.2407 12.191V21.317H46.3567V24.678H39.3697L39.3347 21.892L39.3326 21.818H39.1147V21.818ZM12.8917 11.772V4.112H5.15165V11.846H12.8917V11.773V11.772ZM11.5287 0.12C11.5947 0.128 11.6617 0.137 11.7157 0.148C15.5777 0.654 18.5606 3.947 18.5606 7.944C18.5596 10.032 17.7293 12.034 16.2523 13.5099C14.7753 14.9857 12.7726 15.8145 10.6847 15.814C10.6107 15.814 10.5377 15.81 10.4647 15.804C10.4233 15.8012 10.382 15.7989 10.3407 15.797H5.15165V24.683H0.56665V0.072H10.7037L10.7217 0.074C11.0337 0.077 11.2867 0.089 11.4847 0.112L11.5077 0.116C11.5146 0.117186 11.5216 0.118186 11.5287 0.119V0.12Z" fill="black"/>
</svg>
