<svg width="82" height="65" viewBox="0 0 82 65" fill="none" xmlns="http://www.w3.org/2000/svg">
<g clip-path="url(#clip0_1_241)">
<path d="M21.304 13.4062V14.1538H22.0492H21.304V33.9446H22.7944V14.9013H73.468V44.9612H29.6748H29.3983L29.1889 45.1421L29.6748 45.7087L29.1889 45.1421L22.7944 50.6489V33.9446H21.304V52.2763V53.9028L22.5343 52.8436L29.9505 46.4562H74.2132V45.7087V46.4562H74.9584V14.1538H74.2132V13.4062H21.304ZM74.2132 14.1538H74.9584V13.4062H74.2132V14.1538Z" fill="black"/>
<path d="M55.5735 29.8505L48.8667 23.123L42.1584 29.8505L48.8667 36.5795L55.5735 29.8505ZM46.9493 31.7739C45.8911 30.7124 45.8911 28.9902 46.9493 27.9287C48.0075 26.8673 49.7244 26.8673 50.7826 27.9287C51.8408 28.9902 51.8408 30.7124 50.7826 31.7739C49.7244 32.8353 48.0075 32.8353 46.9493 31.7739Z" fill="#EAC955"/>
<path d="M28.1874 34.7106L33.3486 25.5269L38.6381 34.7106H28.1874Z" stroke="black" stroke-width="2.76"/>
<path d="M70.4872 29.8513C70.4872 26.5481 67.8179 23.8713 64.5256 23.8713C61.2333 23.8713 58.564 26.5481 58.564 29.8513C58.564 33.1538 61.2333 35.8313 64.5256 35.8313C67.8179 35.8313 70.4872 33.1538 70.4872 29.8513ZM61.5068 33.0386V26.6632H67.5444V33.0386H61.5068Z" fill="black"/>
<path d="M0.438354 60.4987H16.8328V44.0537H0.438354V60.4987Z" fill="black"/>
<path d="M8.63557 53.0237C6.16597 53.0237 4.16437 55.0315 4.16437 57.5087H13.1068C13.1068 55.0315 11.1052 53.0237 8.63557 53.0237Z" fill="white"/>
<path d="M8.63556 47.0437C9.87036 47.0437 10.8712 48.0476 10.8712 49.2862C10.8712 50.5248 9.87036 51.5287 8.63556 51.5287C7.40077 51.5287 6.39996 50.5248 6.39996 49.2862C6.39996 48.0476 7.40077 47.0437 8.63556 47.0437Z" fill="white"/>
</g>
<defs>
<clipPath id="clip0_1_241">
<rect width="81" height="65" fill="white" transform="translate(0.0333252)"/>
</clipPath>
</defs>
</svg>
