<svg width="56" height="52" viewBox="0 0 56 52" fill="none" xmlns="http://www.w3.org/2000/svg">
    <path d="M47.9484 7.77868L33.0689 7.87278L32.9751 22.7982L47.8545 22.7041L47.9484 7.77868ZM36.2103 15.3152C36.2248 12.9596 38.1401 11.0384 40.4884 11.0239C42.8368 11.0094 44.7275 12.9061 44.7131 15.2616C44.6979 17.6165 42.7826 19.5377 40.435 19.5529C38.0867 19.5674 36.1959 17.6708 36.2103 15.3152Z"
          fill="black"/>
    <path d="M7.49963 22.7116H21.9581V8.02588H7.49963V22.7116Z" stroke="black" stroke-width="2.1"/>
    <path d="M13.4681 30.1157L4.42804 44.7429L21.6526 44.7821L13.4681 30.1157Z" fill="#5281E8"/>
    <path d="M31.1648 39.7049C31.1648 44.8522 35.3251 49.0253 40.4565 49.0253C45.588 49.0253 49.7482 44.8522 49.7482 39.7049C49.7482 34.5576 45.588 30.3845 40.4565 30.3845C35.3251 30.3845 31.1648 34.5576 31.1648 39.7049Z"
          fill="black"/>
    <path d="M19.3908 29.6611C24.3741 32.9321 25.8389 39.6656 22.54 44.7254C19.2415 49.7845 12.5051 51.1361 7.52172 47.8651C2.53834 44.5942 1.074 37.8599 4.37251 32.8008C7.67148 27.7411 14.4074 26.3902 19.3908 29.6611Z"
          stroke="black" stroke-width="3.15"/>
    <path d="M30.6551 7.7717L35.3142 10.8295L25.0301 25.7339L20.4968 27.5848L20.371 22.6761L30.6551 7.7717Z"
          fill="black"/>
    <path d="M30.6551 7.7717L35.3142 10.8295L25.0301 25.7339L20.4968 27.5848L20.371 22.6761L30.6551 7.7717Z"
          stroke="black" stroke-width="1.5876"/>
</svg>
