<svg width="81" height="64" viewBox="0 0 81 64" fill="none" xmlns="http://www.w3.org/2000/svg">
<path d="M25.2252 12.9134H31.9452V6.19336H25.2252V12.9134ZM41.2734 6.19336H32.025C28.2693 6.19336 25.2252 9.23752 25.2252 12.9932C25.2252 16.748 28.2693 19.793 32.025 19.793H41.2734C45.029 19.793 48.0732 16.748 48.0732 12.9932C48.0732 9.23752 45.029 6.19336 41.2734 6.19336Z" fill="#FFB18F"/>
<path d="M41.2734 6.19336H32.025C28.2693 6.19336 25.2252 9.23752 25.2252 12.9932C25.2252 16.748 28.2693 19.793 32.025 19.793H41.2734C45.029 19.793 48.0732 16.748 48.0732 12.9932C48.0732 9.23752 45.029 6.19336 41.2734 6.19336Z" fill="#FFB18F"/>
<g opacity="0.950186">
<path d="M32.9674 12.9932C32.9674 13.7399 32.3634 14.3447 31.6167 14.3447C30.8699 14.3447 30.2643 13.7399 30.2643 12.9932C30.2643 12.2464 30.8699 11.6416 31.6167 11.6416C32.3634 11.6416 32.9674 12.2464 32.9674 12.9932Z" fill="white"/>
</g>
<path d="M37.999 12.9932C37.999 13.7399 37.3942 14.3447 36.6483 14.3447C35.9015 14.3447 35.2959 13.7399 35.2959 12.9932C35.2959 12.2464 35.9015 11.6416 36.6483 11.6416C37.3942 11.6416 37.999 12.2464 37.999 12.9932Z" fill="white"/>
<path d="M43.0315 12.9932C43.0315 13.7399 42.4267 14.3447 41.6808 14.3447C40.934 14.3447 40.3284 13.7399 40.3284 12.9932C40.3284 12.2464 40.934 11.6416 41.6808 11.6416C42.4267 11.6416 43.0315 12.2464 43.0315 12.9932Z" fill="white"/>
<path d="M29.7636 45.3281C29.7636 41.5725 26.7194 38.5283 22.9638 38.5283H13.7154C9.95975 38.5283 6.91559 41.5725 6.91559 45.3281C6.91559 49.0838 9.95975 52.1279 13.7154 52.1279H29.7476V45.7683C29.7569 45.6221 29.7636 45.476 29.7636 45.3281Z" stroke="#FFB18F" stroke-width="2.5137"/>
<path d="M14.3177 45.3281C14.3177 46.0749 13.7137 46.6797 12.967 46.6797C12.2202 46.6797 11.6146 46.0749 11.6146 45.3281C11.6146 44.5814 12.2202 43.9766 12.967 43.9766C13.7137 43.9766 14.3177 44.5814 14.3177 45.3281Z" fill="#FFB18F"/>
<path d="M19.3526 45.3281C19.3526 46.0749 18.7478 46.6797 18.0019 46.6797C17.2551 46.6797 16.6495 46.0749 16.6495 45.3281C16.6495 44.5814 17.2551 43.9766 18.0019 43.9766C18.7478 43.9766 19.3526 44.5814 19.3526 45.3281Z" fill="#FFB18F"/>
<path d="M24.3834 45.3281C24.3834 46.0749 23.7786 46.6797 23.0326 46.6797C22.2859 46.6797 21.6802 46.0749 21.6802 45.3281C21.6802 44.5814 22.2859 43.9766 23.0326 43.9766C23.7786 43.9766 24.3834 44.5814 24.3834 45.3281Z" fill="#FFB18F"/>
<path d="M43.1836 24.2476C48.2875 24.2476 52.4396 28.3997 52.4396 33.5027C52.4396 36.0908 51.398 38.4915 49.5071 40.2614L49.1123 40.6301V41.1686L49.1132 54.4347H40.6796V48.1859V46.9427H39.4355H33.9159L33.9142 40.6444L33.9125 39.4012H32.6702H31.2296L33.8294 33.5926L33.9268 33.3734L33.9361 33.1331C34.0301 30.74 35.0348 28.5039 36.7635 26.8382C38.4964 25.1674 40.7762 24.2476 43.1836 24.2476ZM43.1853 23.0044C37.5271 23.0044 32.9146 27.4799 32.6945 33.0844L29.3102 40.6444H32.6702L32.6727 48.1859H39.4355L39.4364 55.7762H50.3564V41.1686C52.4035 39.2534 53.6836 36.5276 53.6836 33.5027C53.6836 27.705 48.983 23.0044 43.1853 23.0044ZM43.1836 24.2476C48.2875 24.2476 52.4396 28.3997 52.4396 33.5027C52.4396 36.0908 51.398 38.4915 49.5071 40.2614L49.1123 40.6301V41.1686L49.1132 54.4347H40.6796V48.1859V46.9427H39.4355H33.9159L33.9142 40.6444L33.9125 39.4012H32.6702H31.2296L33.8294 33.5926L33.9268 33.3734L33.9361 33.1331C34.0301 30.74 35.0348 28.5039 36.7635 26.8382C38.4964 25.1674 40.7762 24.2476 43.1836 24.2476Z" fill="white"/>
<path d="M43.1853 23.0044C37.5271 23.0044 32.9146 27.4799 32.6945 33.0844L29.3102 40.6444H32.6702L32.6727 48.1859H39.4355L39.4364 55.7762H50.3564V41.1686C52.4035 39.2534 53.6836 36.5276 53.6836 33.5027C53.6836 27.705 48.983 23.0044 43.1853 23.0044ZM43.1836 24.2476C48.2875 24.2476 52.4396 28.3997 52.4396 33.5027C52.4396 36.0908 51.398 38.4915 49.5071 40.2614L49.1123 40.6301V41.1686L49.1132 54.4347H40.6796V48.1859V46.9427H39.4355H33.9159L33.9142 40.6444L33.9125 39.4012H32.6702H31.2296L33.8294 33.5926L33.9268 33.3734L33.9361 33.1331C34.0301 30.74 35.0348 28.5039 36.7635 26.8382C38.4964 25.1674 40.7762 24.2476 43.1836 24.2476Z" fill="black"/>
<path d="M12.9268 3.62305C18.5851 3.62305 23.1967 8.09857 23.4159 13.703L26.8003 21.263H23.4403L23.4378 28.8046H16.6749V35.6934H5.75493V21.7872C3.70785 19.872 2.42853 17.1462 2.42853 14.1214C2.42853 8.32369 7.12833 3.62305 12.9268 3.62305Z" fill="black"/>
</svg>
